<?xml version="1.0" encoding="utf-8"?>
<!-- Generator: Adobe Illustrator 22.0.1, SVG Export Plug-In . SVG Version: 6.00 Build 0)  -->
<svg version="1.1" id="Capa_1" xmlns="http://www.w3.org/2000/svg" xmlns:xlink="http://www.w3.org/1999/xlink" x="0px" y="0px"
	 viewBox="0 0 51.1 51.1" style="enable-background:new 0 0 51.1 51.1;" xml:space="preserve">
<style type="text/css">
	.st0{fill:#3373AB;}
</style>
<g>
	<g>
		<path class="st0" d="M25.5,20c-5.5,0-10,4.5-10,10s4.5,10,10,10s10-4.5,10-10C35.6,24.5,31.1,20,25.5,20z M25.2,35.2l-5.3-4.4
			l2.1-2.5l2.8,2.3l4.7-5.8l2.5,2L25.2,35.2z"/>
	</g>
</g>
<g>
	<g>
		<rect x="33.6" y="3.2" class="st0" width="6.5" height="6.5"/>
	</g>
</g>
<g>
	<g>
		<rect x="11" y="3.2" class="st0" width="6.5" height="6.5"/>
	</g>
</g>
<g>
	<g>
		<path class="st0" d="M43.3,7.8v5.2H30.4V7.8h-9.7v5.2H7.8V7.8H0v33.6c0,3.6,2.9,6.5,6.5,6.5h38.1c3.6,0,6.5-2.9,6.5-6.5V7.8H43.3z
			 M46.5,41.4L46.5,41.4c0,1.1-0.9,1.9-1.9,1.9H6.5c-1.1,0-1.9-0.9-1.9-1.9V16.8h42V41.4z"/>
	</g>
</g>
</svg>
