<?xml version="1.0" encoding="utf-8"?>
<!-- Generator: Adobe Illustrator 22.0.1, SVG Export Plug-In . SVG Version: 6.00 Build 0)  -->
<svg version="1.1" id="Layer_1" xmlns="http://www.w3.org/2000/svg" xmlns:xlink="http://www.w3.org/1999/xlink" x="0px" y="0px"
	 viewBox="0 0 252.3 20.9" style="enable-background:new 0 0 252.3 20.9;" xml:space="preserve">
<g>
	<path d="M5.2,0v7.9h13.1v5.2H0V0H5.2z M20.9,0h5.2v20.9h-5.2V0z"/>
	<path d="M37.7,0h26.2v5.2H42.9v10.5h20.9v5.2H37.7V0z M61.2,7.9v5.2H45.5V7.9H61.2z"/>
	<path d="M80.6,0v20.9h-5.2V0H80.6z M88.4,7.9L96.3,0h5.2v20.9h-5.2V7.9l-7.9,7.9l-5.2-5.2V2.6L88.4,7.9z"/>
	<path d="M113,20.9V0h5.2v20.9H113z M120.9,0h18.3v20.9H134V5.2h-13.1V0z"/>
	<path d="M150.7,20.9V0h5.2v20.9H150.7z M171.7,0h5.2v20.9h-5.2V7.9l-13.1,13.1v-7.9L171.7,0z"/>
	<path d="M209.3,15.7V0h5.2v20.9h-26.2v-5.2H209.3z M188.4,0h18.3v5.2h-13.1v7.9h-5.2V0z"/>
	<path d="M226.1,20.9V0h5.2v20.9H226.1z M233.9,13.1V7.9H247V0h5.2v20.9H247v-7.9H233.9z"/>
</g>
</svg>
