<?xml version="1.0" encoding="utf-8"?>
<!-- Generator: Adobe Illustrator 22.0.1, SVG Export Plug-In . SVG Version: 6.00 Build 0)  -->
<svg version="1.1" id="Capa_1" xmlns="http://www.w3.org/2000/svg" xmlns:xlink="http://www.w3.org/1999/xlink" x="0px" y="0px"
	 viewBox="0 0 512 512" style="enable-background:new 0 0 512 512;" xml:space="preserve">
<style type="text/css">
	.st0{fill:#3373AB;}
</style>
<path class="st0" d="M498.8,435.2l-82.1-81.8c-5.9-5.8-15.3-5.8-21.2,0L385,363.8l-14.6-14.6c32.2-37,51.6-85.4,51.6-138.2
	C422,94.7,327.3,0,211,0S0,94.7,0,211s94.7,211,211,211c52.8,0,101.1-19.5,138.1-51.6l14.6,14.6l-10.6,10.6
	c-5.9,5.9-5.9,15.4,0,21.2l82,82c17.5,17.5,46.1,17.5,63.6,0C516.4,481.3,516.4,452.8,498.8,435.2L498.8,435.2z M305.4,317.5
	l-20.6-11.9c-8.8,6.9-18.5,12.5-28.8,16.7V346c0,8.3-6.7,15-15,15h-60c-8.3,0-15-6.7-15-15v-23.7c-10.3-4.2-20-9.8-28.8-16.7
	l-20.6,11.9c-7.2,4.1-16.3,1.7-20.5-5.5l-30-52c-4.1-7.2-1.7-16.3,5.5-20.5l20.6-11.9c-1.5-10.7-1.6-21.9,0-33.3l-20.6-11.9
	c-7.2-4.1-9.6-13.3-5.5-20.5l30-52c4.1-7.2,13.3-9.6,20.5-5.5l20.6,11.9c8.8-6.9,18.5-12.5,28.8-16.7V76c0-8.3,6.7-15,15-15h60
	c8.3,0,15,6.7,15,15v23.7c10.3,4.2,20,9.8,28.8,16.7l20.6-11.9c7.2-4.1,16.3-1.7,20.5,5.5l30,52c4.1,7.2,1.7,16.3-5.5,20.5
	l-20.6,11.9c1.5,10.7,1.6,21.9,0,33.3l20.6,11.9c7.2,4.1,9.6,13.3,5.5,20.5l-30,52C321.8,319.2,312.6,321.6,305.4,317.5z"/>
<circle class="st0" cx="211" cy="211" r="25"/>
<path class="st0" d="M305.7,173.7l16.8-9.7l-15-26l-16.8,9.7c-5.7,3.3-13,2.5-17.8-2.1c-10.2-9.7-22.7-16.9-36.1-20.9
	c-6.4-1.9-10.7-7.7-10.7-14.4V91h-30v19.4c0,6.6-4.4,12.5-10.7,14.4c-13.4,4-25.9,11.2-36.1,20.9c-4.8,4.6-12.1,5.4-17.8,2.1
	l-16.8-9.7l-15,26l16.8,9.7c5.7,3.3,8.6,10,7.1,16.5c-3.2,13.4-3.3,27.9,0,41.7c1.5,6.5-1.3,13.1-7.1,16.5L99.6,258l15,26l16.8-9.7
	c5.7-3.3,13-2.5,17.8,2.1c10.2,9.7,22.7,16.9,36.1,20.9c6.4,1.9,10.7,7.7,10.7,14.4V331h30v-19.4c0-6.6,4.4-12.5,10.7-14.4
	c13.4-4,25.9-11.2,36.1-20.9c4.8-4.6,12.1-5.4,17.8-2.1l16.8,9.7l15-26l-16.8-9.7c-5.7-3.3-8.6-10-7.1-16.5
	c3.2-13.4,3.3-27.9,0-41.7C297,183.7,299.9,177,305.7,173.7L305.7,173.7z M211,266c-30.3,0-55-24.7-55-55s24.7-55,55-55
	s55,24.7,55,55S241.3,266,211,266L211,266z"/>
</svg>
